<svg xmlns="http://www.w3.org/2000/svg" width="150" height="150" viewBox="0 0 150 150">
    <title>
        add-repository
    </title>
    <path fill="#fff" d="M63.087 42.187A1.494 1.494 0 0 1 61.6 40.7V30.273a1.494 1.494 0 0 1 1.489-1.489h25.77a19.996 19.996 0 0 1-.082-1.757 19.742 19.742 0 0 1 .373-3.827H42.984a.377.377 0 0 0-.372.372v104.24a.377.377 0 0 0 .372.372H50.8v-12.375a3.343 3.343 0 0 1 0-6.522V95.706a3.343 3.343 0 0 1 0-6.522V75.6a3.343 3.343 0 0 1 0-6.522V55.5a3.343 3.343 0 0 1 0-6.522V35.485h.745a3.351 3.351 0 1 1 3.355-3.35 3.351 3.351 0 0 1-3.351 3.351h.745v13.491a3.343 3.343 0 0 1 0 6.522v13.582a3.343 3.343 0 0 1 0 6.522v13.581a3.343 3.343 0 0 1 0 6.522v13.581a3.343 3.343 0 0 1 0 6.522v12.375h54.726a.377.377 0 0 0 .372-.372V46.725a19.638 19.638 0 0 1-11.5-4.539zm38.713 78.924a1.494 1.494 0 0 1-1.489 1.489H63.087a1.494 1.494 0 0 1-1.489-1.489v-10.424a1.494 1.494 0 0 1 1.489-1.489h37.229a1.494 1.494 0 0 1 1.489 1.489zm0-20.1a1.494 1.494 0 0 1-1.489 1.489H63.087a1.494 1.494 0 0 1-1.489-1.489V90.584a1.494 1.494 0 0 1 1.489-1.489h37.229a1.494 1.494 0 0 1 1.489 1.489zm0-20.1a1.494 1.494 0 0 1-1.489 1.489H63.087a1.494 1.494 0 0 1-1.487-1.5V70.48a1.494 1.494 0 0 1 1.489-1.489h37.229a1.494 1.494 0 0 1 1.482 1.489zm0-30.527V60.8a1.494 1.494 0 0 1-1.489 1.489H63.087A1.494 1.494 0 0 1 61.6 60.8V50.377a1.494 1.494 0 0 1 1.489-1.489h37.229a1.494 1.494 0 0 1 1.482 1.489zM125.156 37.594l15.444 4.137a1.494 1.494 0 0 1 1.053 1.824l-2.264 8.451a1.494 1.494 0 0 1-1.824 1.053l-25.045-6.711a19.678 19.678 0 0 1-2.895.377v4.917l26.422 7.08a1.493 1.493 0 0 1 1.053 1.824L134.833 69a1.493 1.493 0 0 1-1.824 1.053l-23.387-6.267v6.07l21.869 5.86a1.494 1.494 0 0 1 1.053 1.824l-2.264 8.451a1.494 1.494 0 0 1-1.824 1.053l-18.834-5.047v6.07l17.317 4.64a1.494 1.494 0 0 1 1.053 1.824l-2.264 8.451a1.494 1.494 0 0 1-1.824 1.053l-14.282-3.827v6.07l12.764 3.42a1.493 1.493 0 0 1 1.053 1.824l-2.264 8.451a1.494 1.494 0 0 1-1.824 1.053l-9.729-2.607v4.914l14.164 3.8a.355.355 0 0 0 .281-.039.371.371 0 0 0 .174-.224l23.512-87.75a.376.376 0 0 0-.262-.455l-20.26-5.428a19.651 19.651 0 0 1-2.075 4.357zM2.511 38.664a.376.376 0 0 0-.264.455l23.511 87.742a.376.376 0 0 0 .455.264l6.339-1.7-2.774-10.352a2.917 2.917 0 0 1-1.462-5.457l-3.091-11.532a2.917 2.917 0 0 1-1.462-5.457l-3.091-11.534a2.917 2.917 0 0 1-1.462-5.456L16.12 64.1a2.917 2.917 0 0 1-1.462-5.456l-3.063-11.429.719-.193.719-.193L16.1 58.26a2.917 2.917 0 0 1 1.462 5.456l3.091 11.535a2.917 2.917 0 0 1 1.462 5.456L25.2 92.242a2.917 2.917 0 0 1 1.463 5.458l3.091 11.535a2.917 2.917 0 0 1 1.462 5.456l2.774 10.352 6.387-1.712V117.4a1.467 1.467 0 0 1-.225-.468l-2.264-8.451a1.494 1.494 0 0 1 1.053-1.824l1.437-.385v-6.07l-2.955.798a1.494 1.494 0 0 1-1.823-1.056l-2.264-8.451a1.494 1.494 0 0 1 1.053-1.824l5.989-1.6v-6.07l-7.507 2.011a1.493 1.493 0 0 1-1.824-1.053L28.783 74.5a1.493 1.493 0 0 1 1.053-1.824l10.542-2.825v-6.07l-12.06 3.231a1.493 1.493 0 0 1-1.824-1.053l-2.264-8.448a1.494 1.494 0 0 1 1.053-1.824l15.095-4.045v-6.07l-16.613 4.451a1.494 1.494 0 0 1-1.824-1.053l-2.264-8.45a1.494 1.494 0 0 1 1.053-1.82l19.648-5.265v-4.917zm9.8 8.357a2.932 2.932 0 1 1 2.073-3.591 2.932 2.932 0 0 1-2.07 3.592z"/>
    <path fill="#ddd" d="M19.677 40.52l2.264 8.451a1.494 1.494 0 0 0 1.824 1.053l16.612-4.451V33.432L20.73 38.7a1.494 1.494 0 0 0-1.053 1.82zM24.23 57.511l2.264 8.451a1.493 1.493 0 0 0 1.824 1.053l12.06-3.231V51.642l-15.095 4.045a1.494 1.494 0 0 0-1.053 1.824zM28.783 74.5l2.264 8.451a1.493 1.493 0 0 0 1.824 1.053l7.507-2.011V69.854l-10.543 2.824a1.493 1.493 0 0 0-1.052 1.822z"/>
    <circle fill="#ddd" cx="11.555" cy="44.19" r="2.932" transform="rotate(-15 11.554 44.188)"/>
    <path fill="#ddd" d="M33.335 91.493l2.265 8.451A1.494 1.494 0 0 0 37.423 101l2.954-.792V88.064l-5.989 1.6a1.494 1.494 0 0 0-1.053 1.829zM37.888 108.484l2.264 8.451a1.467 1.467 0 0 0 .225.468v-11.127l-1.437.385a1.494 1.494 0 0 0-1.052 1.823zM32.6 111.4a2.924 2.924 0 0 0-2.844-2.162L26.663 97.7a2.917 2.917 0 0 0-1.463-5.458l-3.089-11.535a2.917 2.917 0 0 0-1.462-5.456l-3.091-11.535A2.917 2.917 0 0 0 16.1 58.26l-3.067-11.431-.719.193-.719.193 3.063 11.431A2.917 2.917 0 0 0 16.12 64.1l3.09 11.536a2.917 2.917 0 0 0 1.462 5.456l3.091 11.535a2.917 2.917 0 0 0 1.462 5.457l3.091 11.535a2.917 2.917 0 0 0 1.462 5.457l2.774 10.352 1.438-.385-2.774-10.353a2.924 2.924 0 0 0 1.384-3.29zM139.386 52.006l2.264-8.451a1.494 1.494 0 0 0-1.053-1.824l-15.441-4.137a19.782 19.782 0 0 1-12.639 8.754l25.045 6.711a1.494 1.494 0 0 0 1.824-1.053zM134.833 69l2.264-8.451a1.493 1.493 0 0 0-1.053-1.824l-26.422-7.08v12.138l23.388 6.267a1.493 1.493 0 0 0 1.823-1.05zM130.281 85.988l2.264-8.451a1.494 1.494 0 0 0-1.053-1.824l-21.869-5.86v12.141l18.834 5.047a1.494 1.494 0 0 0 1.824-1.053zM125.728 102.979l2.264-8.451a1.494 1.494 0 0 0-1.053-1.824l-17.317-4.64v12.141l14.282 3.827a1.494 1.494 0 0 0 1.824-1.053zM121.175 119.97l2.264-8.451a1.493 1.493 0 0 0-1.053-1.824l-12.764-3.42v12.141l9.729 2.607a1.494 1.494 0 0 0 1.824-1.053zM61.6 30.273V40.7a1.494 1.494 0 0 0 1.489 1.489h32.8a19.709 19.709 0 0 1-7.035-13.4H63.087a1.494 1.494 0 0 0-1.487 1.484z"/>
    <rect fill="#ddd" x="61.598" y="48.888" width="40.207" height="13.402" rx="1.489" ry="1.489"/>
    <rect fill="#ddd" x="61.598" y="68.991" width="40.207" height="13.402" rx="1.489" ry="1.489"/>
    <circle fill="#ddd" cx="51.546" cy="32.135" r="3.351"/>
    <path fill="#ddd" d="M54.9 112.548a3.347 3.347 0 0 0-2.606-3.261V95.706a3.343 3.343 0 0 0 0-6.522V75.6a3.343 3.343 0 0 0 0-6.522V55.5a3.343 3.343 0 0 0 0-6.522V35.485H50.8v13.492a3.343 3.343 0 0 0 0 6.522v13.582a3.343 3.343 0 0 0 0 6.522v13.581a3.343 3.343 0 0 0 0 6.522v13.581a3.343 3.343 0 0 0 0 6.522v12.375h1.489v-12.375a3.347 3.347 0 0 0 2.611-3.261z"/>
    <rect fill="#ddd" x="61.598" y="89.094" width="40.207" height="13.402" rx="1.489" ry="1.489"/>
    <rect fill="#ddd" x="61.598" y="109.198" width="40.207" height="13.402" rx="1.489" ry="1.489"/>
    <path fill="#8bc34a" d="M91.008 27.028a17.5 17.5 0 1 0 17.5-17.5 17.517 17.517 0 0 0-17.5 17.5zm19.359-1.862h7.446v3.723h-7.446v7.446h-3.723v-7.446H99.2v-3.723h7.446V17.72h3.723z"/>
    <path fill="#1f2532" d="M149.649 37.721a2.588 2.588 0 0 0-1.581-1.215l-20.251-5.426a19.719 19.719 0 0 0-32.041-19.111 67.072 67.072 0 0 0-69.863 18.112l-23.98 6.425A2.61 2.61 0 0 0 .089 39.7l8.137 30.364a68.026 68.026 0 0 0-.237 5.628 66.7 66.7 0 0 0 12 38.267L23.6 127.44a2.614 2.614 0 0 0 2.516 1.933 2.626 2.626 0 0 0 .676-.089l5.942-1.592a67 67 0 0 0 84.532 0l5.942 1.592a2.59 2.59 0 0 0 1.977-.262 2.587 2.587 0 0 0 1.215-1.581l3.613-13.482a66.7 66.7 0 0 0 12-38.266c0-1.9-.083-3.772-.237-5.628L149.91 39.7a2.588 2.588 0 0 0-.261-1.979zM108.506 9.53a17.5 17.5 0 1 1-17.5 17.5 17.517 17.517 0 0 1 17.5-17.5zm-56.96 118.654h-8.562a.377.377 0 0 1-.372-.372V23.572a.377.377 0 0 1 .372-.372H89.15a19.742 19.742 0 0 0-.376 3.828c0 .592.031 1.177.082 1.757a19.752 19.752 0 0 0 18.532 17.941v81.087a.377.377 0 0 1-.372.372h-55.47zm-18.994-2.757l-6.339 1.7a.376.376 0 0 1-.455-.264L2.247 39.12a.376.376 0 0 1 .264-.455l37.867-10.147v94.812l-6.387 1.712zm115.2-86.308l-23.511 87.742a.371.371 0 0 1-.174.224.355.355 0 0 1-.281.039l-14.164-3.8v-76.6a19.782 19.782 0 0 0 17.608-13.489l20.26 5.428a.376.376 0 0 1 .262.455z"/>
    <path fill="#fff" d="M106.644 17.72v7.446h-7.445v3.723h7.445v7.445h3.723v-7.445h7.446v-3.723h-7.446V17.72h-3.723z"/>
</svg>
