<svg xmlns="http://www.w3.org/2000/svg" width="300" height="109.076" viewBox="0 0 300 109.076">
    <title>
        gitsum-logo
    </title>
    <path fill="#c0b4af" d="M54.533 104.5a49.827 49.827 0 0 0 36.659-16.032c-.142-.081-.267-.173-.4-.259-.106-.068-.216-.133-.317-.2a9.902 9.902 0 0 1-.64-.5c-.054-.046-.115-.089-.168-.136a9.257 9.257 0 0 1-.7-.7c-.061-.068-.114-.14-.173-.209a9.427 9.427 0 0 1-.434-.541l-.2-.287q-.17-.246-.323-.5-.091-.15-.177-.3-.141-.248-.265-.494l-.145-.292a13.478 13.478 0 0 1-.229-.518c-.035-.084-.073-.167-.105-.25q-.129-.329-.235-.642l-.032-.089a13.521 13.521 0 0 1-.207-.688c-.02-.072-.035-.136-.053-.206-.037-.145-.074-.286-.1-.42a18.329 18.329 0 0 1-.147-.737c-.015-.092-.029-.173-.04-.251a6.438 6.438 0 0 1-.021-.146c-.011-.078-.018-.14-.025-.2a.686.686 0 0 0-.008-.072l-.013-.132V48.986a25.966 25.966 0 0 0-25.944-25.938H48.976a25.966 25.966 0 0 0-25.938 25.938v30.71c0 .019-.006.066-.013.132 0 .021-.006.047-.009.073l-.024.2-.022.15a10.668 10.668 0 0 1-.137.743l-.052.243a6.69 6.69 0 0 1-.1.385c-.02.08-.038.154-.061.237q-.089.324-.2.675c-.017.051-.039.106-.057.158a12.67 12.67 0 0 1-.21.573c-.036.093-.079.187-.118.28a11.768 11.768 0 0 1-.371.802q-.119.234-.251.469a10.71 10.71 0 0 1-.498.797c-.069.1-.136.2-.21.3a9.687 9.687 0 0 1-.419.523c-.063.075-.121.152-.187.225a9.245 9.245 0 0 1-.7.7c-.055.049-.118.093-.174.141-.2.172-.41.34-.634.5-.1.071-.211.136-.316.2-.134.087-.26.179-.4.26A49.827 49.827 0 0 0 54.533 104.5zM28.6 48.986c0-8.106 4.353-12.57 12.257-12.57 5.634 0 11.582 2.262 13.679 3.14 2.1-.878 8.045-3.14 13.679-3.14 7.9 0 12.257 4.464 12.257 12.57v12.041c0 5.138-3.628 10.338-10.218 14.644-5.166 3.377-11.629 5.73-15.718 5.73s-10.552-2.353-15.718-5.729C32.225 71.366 28.6 66.165 28.6 61.028z"/>
    <path fill="#dcedc8" d="M104.486 54.543a49.953 49.953 0 1 0-89.109 31.013c3.347-1.392 3.9-5.556 3.956-6.088V48.986a29.676 29.676 0 0 1 29.643-29.643h11.115a29.676 29.676 0 0 1 29.643 29.643v30.482c.059.561.6 4.7 3.955 6.089a50.009 50.009 0 0 0 10.797-31.014z"/>
    <path fill="#ede8e6" d="M46.1 54.08a6.473 6.473 0 0 1-6.466 6.466H32.3v.482c0 3.789 3.113 8 8.539 11.543 5.15 3.368 10.79 5.13 13.692 5.13s8.537-1.762 13.692-5.13c5.427-3.547 8.539-7.754 8.539-11.543v-.482h-7.524a6.466 6.466 0 0 1 0-12.931h7.443c-.407-5.08-3.107-7.494-8.469-7.494-6.015 0-12.836 3.106-12.9 3.137l-.774.356-.776-.356c-.069-.031-6.888-3.137-12.9-3.137-5.362 0-8.062 2.414-8.469 7.494h7.253A6.473 6.473 0 0 1 46.1 54.08zm8.429.137c2.865 0 5.187 1.313 5.187 2.933s-2.322 2.933-5.187 2.933-5.187-1.313-5.187-2.933 2.326-2.933 5.191-2.933zm-7.142 9.966a1.39 1.39 0 0 1 1.965 0 7.326 7.326 0 0 0 10.361 0 1.39 1.39 0 0 1 1.965 1.966 10.106 10.106 0 0 1-14.291 0 1.39 1.39 0 0 1 0-1.966z"/>
    <path fill="#fff" d="M39.513 57.625a3.545 3.545 0 1 0-3.544-3.546 3.544 3.544 0 0 0 3.543 3.545zm0-5.12a1.576 1.576 0 1 1-1.576 1.576 1.576 1.576 0 0 1 1.576-1.576zM69.364 50.536a3.545 3.545 0 1 0 3.545 3.545 3.545 3.545 0 0 0-3.545-3.545zm0 5.12a1.576 1.576 0 1 1 1.576-1.576 1.576 1.576 0 0 1-1.576 1.576z"/>
    <path fill="#1f2532" d="M54.533 0a54.538 54.538 0 1 0 54.543 54.543A54.538 54.538 0 0 0 54.533 0zm36.659 88.468a49.94 49.94 0 0 1-70.572 2.749q-1.428-1.317-2.75-2.749c.142-.081.268-.173.4-.26.106-.068.215-.133.316-.2.223-.158.432-.326.634-.5.056-.048.119-.092.174-.141a9.245 9.245 0 0 0 .7-.7c.066-.074.123-.15.187-.225.146-.172.288-.346.419-.523.074-.1.141-.2.21-.3.108-.158.213-.316.31-.475a11.708 11.708 0 0 0 .439-.791c.054-.106.108-.212.157-.318.077-.163.146-.323.214-.484.039-.094.082-.188.118-.28.077-.2.145-.386.21-.573.018-.052.04-.107.057-.158q.116-.351.2-.675c.023-.083.04-.157.061-.237.034-.132.067-.262.1-.385.019-.086.036-.163.052-.243l.061-.3.037-.2c.015-.089.028-.167.039-.243.008-.054.016-.1.022-.15.011-.078.018-.138.024-.2a.5.5 0 0 1 .009-.073l.013-.132V48.986a25.966 25.966 0 0 1 25.943-25.938h11.115a25.966 25.966 0 0 1 25.937 25.938v30.568a1.293 1.293 0 0 0 0 .142c0 .019.006.066.013.132 0 .021.006.047.008.072.006.057.014.118.025.2l.021.146c.011.078.025.159.04.251a14.338 14.338 0 0 0 .1.52c.015.072.029.141.047.217.03.133.066.274.1.42.018.07.033.134.053.206.06.22.128.449.207.688.009.029.022.06.032.089.071.209.148.423.235.642.033.083.07.166.105.25.072.171.146.343.229.518.046.1.1.194.145.292.083.165.171.329.265.494q.086.15.177.3c.1.166.21.33.323.5.066.1.129.192.2.287.135.184.282.363.434.541.059.069.112.141.173.209a9.257 9.257 0 0 0 .7.7c.053.047.113.09.168.136a7.481 7.481 0 0 0 .64.5c.1.072.211.136.317.2.142.089.268.181.407.262zm2.5-2.911c-3.352-1.388-3.9-5.527-3.955-6.089V48.986a29.676 29.676 0 0 0-29.646-29.643H48.976a29.676 29.676 0 0 0-29.643 29.643v30.482c-.057.532-.609 4.7-3.956 6.088a49.953 49.953 0 1 1 78.311 0z"/>
    <path fill="#1f2532" d="M68.212 36.415c-5.634 0-11.582 2.262-13.679 3.14-2.1-.878-8.045-3.14-13.679-3.14-7.9 0-12.257 4.464-12.257 12.57v12.042c0 5.138 3.628 10.338 10.218 14.644 5.166 3.377 11.63 5.73 15.718 5.73s10.552-2.358 15.718-5.734c6.59-4.306 10.218-9.507 10.218-14.644V48.986c.002-8.106-4.351-12.571-12.257-12.571zm4.7 17.665a3.545 3.545 0 1 1-3.545-3.545 3.545 3.545 0 0 1 3.542 3.545zm-36.941 0a3.545 3.545 0 1 1 3.545 3.545 3.545 3.545 0 0 1-3.548-3.542zm40.8 6.947c0 3.789-3.113 8-8.539 11.543-5.162 3.369-10.8 5.131-13.7 5.131s-8.541-1.761-13.69-5.131c-5.427-3.547-8.542-7.754-8.542-11.543v-.482h7.336a6.466 6.466 0 0 0 .164-12.931h-7.415c.407-5.08 3.107-7.494 8.469-7.494 6.016 0 12.835 3.106 12.9 3.137l.776.356.774-.356c.068-.031 6.888-3.137 12.9-3.137 5.362 0 8.062 2.414 8.469 7.494h-7.435a6.466 6.466 0 0 0 0 12.931h7.526z"/>
    <ellipse fill="#1f2532" cx="54.533" cy="57.15" rx="5.187" ry="2.933"/>
    <circle fill="#1f2532" cx="39.513" cy="54.08" r="1.576"/>
    <circle fill="#1f2532" cx="69.364" cy="54.08" r="1.576"/>
    <path fill="#1f2532" d="M59.714 64.182a7.326 7.326 0 0 1-10.361 0 1.39 1.39 0 0 0-1.962 1.966 10.106 10.106 0 0 0 14.291 0 1.39 1.39 0 0 0-1.965-1.966zM136.366 54.822v-.093c0-8.9 6.533-16.775 16.265-16.775a17.284 17.284 0 0 1 11.075 3.476 1.854 1.854 0 0 1-1.066 3.336 1.936 1.936 0 0 1-1.159-.464 13.752 13.752 0 0 0-8.99-2.966c-7.183 0-12.326 6.071-12.326 13.3v.093c0 7.738 4.959 13.484 12.837 13.484a15.272 15.272 0 0 0 9.359-3.243v-8.063h-8.711a1.645 1.645 0 1 1 0-3.29h10.426a1.849 1.849 0 0 1 1.807 1.854v9.87a2.612 2.612 0 0 1-1.252 2.224 19.772 19.772 0 0 1-11.77 3.938c-10.194-.003-16.495-7.414-16.495-16.681zM173.517 39.484a2.12 2.12 0 0 1 4.217 0v.6a2.12 2.12 0 0 1-4.217 0zm.324 9.082a1.8 1.8 0 0 1 1.762-1.807 1.781 1.781 0 0 1 1.807 1.755v20.858a1.742 1.742 0 0 1-1.676 1.806h-.086a1.78 1.78 0 0 1-1.807-1.753v-.054zM186.953 64.6V50.141h-1.947a1.624 1.624 0 0 1-1.576-1.576 1.592 1.592 0 0 1 1.576-1.575h1.947v-5.653a1.769 1.769 0 0 1 1.731-1.807h.03a1.84 1.84 0 0 1 1.807 1.807v5.654h6.21a1.633 1.633 0 0 1 1.621 1.575 1.6 1.6 0 0 1-1.621 1.576h-6.21v13.993c0 2.919 1.622 3.986 4.031 3.986a10.087 10.087 0 0 0 2.179-.325 1.543 1.543 0 0 1 1.528 1.529 1.491 1.491 0 0 1-1.019 1.391 9.007 9.007 0 0 1-3.521.648c-3.847.001-6.766-1.899-6.766-6.764zM203.675 67.518a3.329 3.329 0 0 1-1.343-2.688 3.284 3.284 0 0 1 3.278-3.29h.058a3.421 3.421 0 0 1 2.038.65 13.685 13.685 0 0 0 8.3 2.919c2.919 0 4.68-1.159 4.68-3.059v-.093c0-1.807-1.112-2.733-6.533-4.124-6.533-1.668-10.751-3.475-10.751-9.916v-.093c0-5.885 4.726-9.777 11.352-9.777a18.834 18.834 0 0 1 10.288 2.873 3.3 3.3 0 0 1-1.762 6.116 3.425 3.425 0 0 1-1.807-.509 13.5 13.5 0 0 0-6.811-2.178c-2.734 0-4.171 1.25-4.171 2.826v.093c0 2.131 1.39 2.826 7 4.263 6.58 1.715 10.287 4.078 10.287 9.731v.093c0 6.44-4.912 10.056-11.909 10.056a20.939 20.939 0 0 1-12.194-3.893zM255.8 67.7a3.522 3.522 0 0 1-7.043 0v-.278c-1.622 2.085-3.707 3.985-7.276 3.985-5.328 0-8.433-3.522-8.433-9.221V49.353a3.522 3.522 0 0 1 7.043 0v10.613c0 3.336 1.576 5.05 4.264 5.05s4.4-1.714 4.4-5.05V49.353a3.522 3.522 0 0 1 7.043 0zM262.09 49.353a3.523 3.523 0 0 1 7.045 0v.279c1.621-2.086 3.752-3.986 7.321-3.986a7.431 7.431 0 0 1 7 3.94 10.225 10.225 0 0 1 8.156-3.94c5.236 0 8.387 3.152 8.387 9.129V67.7a3.522 3.522 0 0 1-7.043 0V57.092c0-3.336-1.483-5.05-4.124-5.05s-4.263 1.714-4.263 5.05V67.7a3.522 3.522 0 0 1-7.043 0V57.092c0-3.336-1.483-5.05-4.124-5.05s-4.263 1.714-4.263 5.05V67.7a3.523 3.523 0 0 1-7.045 0z"/>
</svg>
