<svg xmlns="http://www.w3.org/2000/svg" viewBox="0 0 16 16">
    <path d="M10.5 15.7c-.4.1-.6-.1-.6-.4v-2.2c0-.7-.3-1.3-.6-1.4 1.8-.1 3.6-.8 3.6-3.9 0-.8-.3-1.5-.8-2.1.1-.1.4-1-.1-2.1 0 0-.7-.3-2.2.8-.4-.2-1.1-.3-1.8-.3s-1.4.1-2 .2c-1.5-1-2.2-.8-2.2-.8-.4 1.1-.1 2 0 2.1-.6.6-.9 1.3-.9 2.1 0 3.1 1.8 3.8 3.6 3.9-.3.1-.4.6-.6 1.1-.4.1-1.5.6-2.2-.7 0 0-.4-.7-1.3-.8 0 0-.8 0 0 .4 0 0 .6.3.8 1.1 0 0 .4 1.4 2.7 1v1.5c0 .1-.1.4-.6.4-2.9-.9-5.3-4-5.3-7.5C0 3.7 3.6.2 8 .2s8 3.5 8 8c0 3.4-2.4 6.5-5.5 7.5z"/>
</svg>
