<svg xmlns="http://www.w3.org/2000/svg" viewBox="0 0 100 100">
    <circle fill="#FFF" cx="50" cy="50" r="50"/>
    <path fill="#C0B4AF" d="M50.5 90.3c11.1 0 21.7-4.6 29.2-12.8-.1-.1-.2-.1-.3-.2-.1-.1-.2-.1-.3-.2-.2-.1-.3-.3-.5-.4l-.1-.1-.6-.6c0-.1-.1-.1-.1-.2-.1-.1-.2-.3-.3-.4l-.2-.2c-.1-.1-.2-.3-.3-.4 0-.1-.1-.2-.1-.2-.1-.1-.1-.3-.2-.4l-.2-.2c-.1-.1-.1-.3-.2-.4 0-.1-.1-.1-.1-.2-.1-.2-.1-.3-.2-.5v-.1c-.1-.2-.1-.4-.2-.5v-.2c0-.1-.1-.2-.1-.3 0-.2-.1-.4-.1-.6V71v-.1-.2V46c0-11.4-9.3-20.7-20.7-20.7H46c-11.4 0-20.7 9.3-20.7 20.7V71c0 .2-.1.4-.1.6v.2c0 .1-.1.2-.1.3v.2c0 .2-.1.4-.2.5v.1c-.1.2-.1.3-.2.5 0 .1-.1.1-.1.2l-.3.6c-.1.1-.1.2-.2.4s-.3.4-.4.6c-.1.1-.1.2-.2.2-.1.1-.2.3-.3.4-.1.2-.1.2-.2.3l-.6.6-.1.1c-.2.1-.3.3-.5.4-.1.1-.2.1-.3.2-.1.1-.2.1-.3.2 7.6 8.1 18.2 12.7 29.3 12.7zM29.8 46c0-6.5 3.5-10 9.8-10 4.5 0 9.2 1.8 10.9 2.5 1.7-.7 6.4-2.5 10.9-2.5 6.3 0 9.8 3.6 9.8 10v9.6c0 4.1-2.9 8.2-8.1 11.7-4.1 2.7-9.3 4.6-12.5 4.6s-8.4-1.9-12.5-4.6c-5.3-3.4-8.1-7.6-8.1-11.7V46z"/>
    <path fill="#DCEDC8" d="M90.3 50.5c0-22-17.8-39.8-39.8-39.8-22 0-39.8 17.8-39.8 39.8 0 9 3 17.7 8.6 24.7 2.7-1.1 3.1-4.4 3.2-4.9V46C22.4 33 33 22.4 46 22.4h8.9c13 0 23.6 10.6 23.6 23.6v24.3c0 .4.5 3.7 3.2 4.9 5.5-7 8.6-15.8 8.6-24.7z"/>
    <path fill="#EDE8E6" d="M43.7 50.1c0 2.8-2.3 5.2-5.2 5.2h-5.8v.4c0 3 2.5 6.4 6.8 9.2 4.1 2.7 8.6 4.1 10.9 4.1 2.3 0 6.8-1.4 10.9-4.1 4.3-2.8 6.8-6.2 6.8-9.2v-.4h-6c-2.8 0-5.1-2.4-5.1-5.2 0-2.8 2.3-5.1 5.1-5.1H68c-.3-4-2.5-6-6.8-6-4.8 0-10.2 2.5-10.3 2.5l-.6.3-.6-.3c-.1 0-5.5-2.5-10.3-2.5-4.3 0-6.4 1.9-6.8 6h5.8c3 0 5.3 2.3 5.3 5.1zm6.8.1c2.3 0 4.1 1 4.1 2.3s-1.9 2.3-4.1 2.3-4.1-1-4.1-2.3 1.8-2.3 4.1-2.3zm-5.7 8c.4-.4 1.1-.4 1.6 0 2.3 2.3 6 2.3 8.3 0 .4-.4 1.1-.4 1.6 0 .4.4.4 1.1 0 1.5-3.1 3.1-8.2 3.1-11.4 0-.6-.4-.6-1.1-.1-1.5z"/>
    <path fill="#FFF" d="M38.5 52.9c1.6 0 2.8-1.3 2.8-2.8 0-1.6-1.3-2.8-2.8-2.8s-2.8 1.3-2.8 2.8c0 1.6 1.2 2.8 2.8 2.8zm0-4.1c.7 0 1.3.6 1.3 1.3 0 .7-.6 1.3-1.3 1.3-.7 0-1.3-.6-1.3-1.3 0-.7.6-1.3 1.3-1.3zm23.8-1.5c-1.6 0-2.8 1.3-2.8 2.8 0 1.6 1.3 2.8 2.8 2.8 1.6 0 2.8-1.3 2.8-2.8 0-1.6-1.3-2.8-2.8-2.8zm0 4.1c-.7 0-1.3-.6-1.3-1.3 0-.7.6-1.3 1.3-1.3.7 0 1.3.6 1.3 1.3-.1.7-.6 1.3-1.3 1.3z"/>
    <path fill="#1F2532" d="M50.5 7C26.5 7 7 26.5 7 50.5S26.5 94 50.5 94 94 74.5 94 50.5C93.9 26.5 74.5 7 50.5 7zm29.2 70.5c-14.9 16.1-40.1 17.1-56.3 2.2-.8-.7-1.5-1.4-2.2-2.2.1-.1.2-.1.3-.2.1-.1.2-.1.3-.2.2-.1.3-.3.5-.4l.1-.1.6-.6c.1-.1.1-.1.1-.2.1-.1.2-.3.3-.4.1-.1.1-.2.2-.2.1-.1.2-.3.2-.4l.3-.6c0-.1.1-.2.1-.3.1-.1.1-.3.2-.4 0-.1.1-.1.1-.2.1-.2.1-.3.2-.5v-.1c.1-.2.1-.4.2-.5V72c0-.1.1-.2.1-.3V71.1v-.2-.1-.2V46c0-11.4 9.3-20.7 20.7-20.7h8.9c11.4 0 20.7 9.3 20.7 20.7V71.2c0 .1.1.3.1.4v.2c0 .1.1.2.1.3v.2c0 .2.1.4.2.5v.1c.1.2.1.3.2.5 0 .1.1.1.1.2.1.1.1.3.2.4 0 .1.1.2.1.2.1.1.1.3.2.4 0 .1.1.2.1.2.1.1.2.3.3.4.1.1.1.2.2.2.1.1.2.3.3.4 0 .1.1.1.1.2l.6.6.1.1c.2.1.3.3.5.4.1.1.2.1.3.2.5.1.6.2.7.2zm2-2.3c-2.7-1.1-3.1-4.4-3.2-4.9V46c0-13-10.6-23.6-23.6-23.6H46C33 22.4 22.4 33 22.4 46v24.3c0 .4-.5 3.7-3.2 4.9C5.6 58 8.5 32.9 25.7 19.3s42.3-10.8 56 6.4c11.5 14.5 11.5 35 0 49.5z"/>
    <path fill="#1F2532" d="M61.4 36c-4.5 0-9.2 1.8-10.9 2.5-1.7-.7-6.4-2.5-10.9-2.5-6.3 0-9.8 3.6-9.8 10v9.6c0 4.1 2.9 8.2 8.1 11.7 4.1 2.7 9.3 4.6 12.5 4.6 3.3 0 8.4-1.9 12.5-4.6 5.3-3.4 8.1-7.6 8.1-11.7V46c.1-6.4-3.3-10-9.6-10zm3.7 14.1c0 1.6-1.3 2.8-2.8 2.8s-2.8-1.3-2.8-2.8c0-1.6 1.3-2.8 2.8-2.8 1.5 0 2.8 1.2 2.8 2.8zm-29.4 0c0-1.6 1.3-2.8 2.8-2.8 1.6 0 2.8 1.3 2.8 2.8s-1.3 2.8-2.8 2.8c-1.6 0-2.8-1.2-2.8-2.8zm32.5 5.5c0 3-2.5 6.4-6.8 9.2-4.1 2.7-8.6 4.1-10.9 4.1-2.3 0-6.8-1.4-10.9-4.1-4.3-2.8-6.8-6.2-6.8-9.2v-.4h5.8c2.8 0 5.2-2.2 5.2-5.1 0-2.8-2.2-5.2-5.1-5.2h-5.9c.3-4 2.5-6 6.8-6 4.8 0 10.2 2.5 10.3 2.5l.6.3.6-.3c.1 0 5.5-2.5 10.3-2.5 4.3 0 6.4 1.9 6.8 6h-5.9c-2.8 0-5.1 2.4-5.1 5.2 0 2.8 2.3 5.1 5.1 5.1h6l-.1.4z"/>
    <ellipse fill="#1F2532" cx="50.5" cy="52.6" rx="4.1" ry="2.3"/>
    <circle fill="#1F2532" cx="38.5" cy="50.1" r="1.3"/>
    <circle fill="#1F2532" cx="62.3" cy="50.1" r="1.3"/>
</svg>
